<svg xmlns="http://www.w3.org/2000/svg" xml:space="preserve" width="1500" height="1500" data-id="lg_wU0vLZrtbtjX5fdOcn" data-version="1" viewBox="0 0 1500 1500"><path fill="#fff" stroke="transparent" d="M0 0h1500v1500H0z"/><g data-padding="20"><g transform="translate(-523.666 -529.798)scale(1.66192)"><path fill="#6d6ead" d="M956.956 764.776 764.747 956.984 571.814 764.23l12.887-12.886L764.75 931.393l179.32-179.324Z"/><path fill="#6d6ead" d="M494.131 677.656h76.23v76.23h-76.23Zm-18.15-18.15v112.53h112.53v-112.53Zm486.42 18.15h76.23v76.23h-76.23Zm-18.15-18.15v112.53h112.53v-112.53Z"/><rect width="352" height="230.52" x="199.976" y="254.029" fill="none" rx="0" ry="0" transform="translate(400.5 329.13)"/><path fill="#6d6ead" d="M760.726 762.009q-6.53 0-12.54-3.67-6.02-3.67-9.69-11.63-3.68-7.96-3.68-20.4 0-10.2 2.45-22.95t6.43-25.6 8.67-23.26q-14.08 9.39-24.69 25.91-10.6 16.52-18.36 38.35 1.64 6.53 2.66 12.24t1.02 10.41q0 8.97-4.29 14.07-4.28 5.1-14.89 5.1-9.38 0-13.77-4.18t-4.39-11.73q0-4.9 1.74-11.22 1.73-6.32 5-13.67-3.68-10.81-8.98-24.38-5.3-13.56-14.89-29.68-2.86 12.04-5.82 23.97-2.95 11.94-4.89 22.03-1.94 10.1-1.94 17.04 0 11.22 6.12 11.22l.41.41q0 6.73-3.37 11.52-3.36 4.8-8.57 7.35-5.2 2.55-10.91 2.55-5.51 0-10.71-2.66-5.2-2.65-8.47-8.26-3.26-5.61-3.26-14.38 0-8.36 2.96-18.26 2.96-9.89 7.44-20.19 4.49-10.31 9.18-20.2 4.7-9.89 8.47-18.56t5-15.2q-4.08-2.86-8.77-2.86-3.88 0-7.86 2.55t-7.44 8.47l-1.43-.61q.2-10.41 4.49-19.08 4.28-8.67 11.32-13.87t15.4-5.2q9.59 0 19.79 8.36 10.2 8.37 18.87 27.54 8.67 19.18 13.97 51.82 7.75-25.09 16.73-42.03 8.98-16.93 18.46-26.92 9.49-10 18.77-14.39 9.28-4.38 17.65-4.38 10.4 0 18.66 5.1t13.06 12.85q4.79 7.75 4.79 15.5-5.1-1.42-10.1-2.04-4.99-.61-9.69-.61-4.69 0-8.97.61-1.84 9.39-3.88 20.91-2.04 11.53-3.57 23.16t-1.53 21.42q0 9.99 2.04 16.32 2.04 6.32 7.14 6.32 3.27 0 6.63-2.85 3.37-2.86 5-8.78l1.43.62q0 13.46-4.49 22.33-4.49 8.88-11.53 13.26-7.03 4.39-14.38 4.39m139.95 1.42q-7.35 0-16.63-2.65-9.28-2.66-19.38-5.82t-20.09-4.59q-6.94 6.53-12.96 9.28-6.02 2.76-10.71 2.76-5.91 0-9.99-3.47t-6.12-8.87q-2.04-5.41-2.04-11.12 0-5.92 2.14-11.22 2.14-5.31 6.63-8.67 4.49-3.37 11.42-3.37 1.43 0 3.06.21 1.63.2 3.47.61 3.88-11.83 6.83-26.22 2.96-14.38 4.7-28.25 1.73-13.87 1.73-24.07 0-4.08-.41-5.82-.41-1.73-1.43-3.57l-.2-.61q2.45-6.53 8.16-10.2t12.04-3.67q6.93 0 11.42 5t4.49 16.62q0 7.35-1.74 18.26-1.73 10.92-4.79 23.46-3.06 12.55-6.73 24.79t-7.35 21.83q8.98 2.04 18.06 4.69t17.85 2.65q6.73 0 12.95-2.45t11.73-8.97q4.08 2.65 6.02 7.54 1.94 4.9 1.94 10.41 0 6.12-2.55 11.93-2.55 5.82-7.86 9.69-5.3 3.88-13.66 3.88"/></g><path fill="transparent" stroke="transparent" stroke-width="1.721" d="M250 428.141h1000v643.718H250z"/></g></svg>